<svg width="151" height="98" viewBox="0 0 151 98" fill="none" xmlns="http://www.w3.org/2000/svg">
<path d="M42.9379 41.0299C42.9453 40.9294 42.9453 40.8284 42.9379 40.7279C42.9192 40.2995 42.8043 39.8808 42.6016 39.5029C42.399 39.125 42.1138 38.7977 41.7673 38.5451L41.7144 38.4998C41.2376 38.1277 40.6501 37.9256 40.0453 37.9258C39.9829 37.7972 39.9069 37.6757 39.8187 37.5633C39.4394 37.1668 38.9814 36.8538 38.4742 36.6444C37.967 36.4351 37.4217 36.3339 36.8732 36.3473C36.517 36.3431 36.1624 36.3966 35.8233 36.5059C35.3077 36.1459 34.6925 35.9558 34.0636 35.9622C33.7055 35.9663 33.3497 36.0196 33.0062 36.1207C32.6151 35.9979 32.2078 35.9342 31.7978 35.9319C31.3723 35.9219 30.9505 36.0125 30.5667 36.1963L30.2948 36.1057C30.4383 35.9697 30.5894 35.8413 30.7404 35.7129L32.5229 34.1495L36.2463 30.9019L36.5257 30.6526L38.4214 29.0062L39.8791 27.7373L40.5739 27.1256C41.0573 26.7026 41.5105 26.2948 41.9938 25.9021C44.0255 24.2329 44.2596 22.5185 44.1614 21.3705C44.0818 20.8283 43.8146 20.3312 43.4062 19.9657C43.4211 19.7948 43.4211 19.623 43.4062 19.4521C43.2929 18.3268 42.4621 17.4884 40.9289 16.9597C40.8338 16.924 40.735 16.8987 40.6344 16.8842C40.4611 16.6193 40.225 16.4013 39.9471 16.2498C39.4937 16.0154 39.0242 15.8135 38.5423 15.6456L38.1043 15.487C37.6466 15.301 37.1344 15.301 36.6768 15.487L36.4955 15.555C36.2263 15.3376 35.9022 15.199 35.559 15.1546L35.0832 15.0867C34.8342 15.0379 34.5816 15.0101 34.3279 15.0036C32.2605 14.9542 30.2123 15.4105 28.3614 16.3329C27.202 16.9988 26.1203 17.7916 25.1364 18.6968L24.9853 18.8328C23.6636 19.9733 22.3495 21.0986 21.0806 22.2617C20.0736 23.1378 19.0842 24.0114 18.1124 24.8824C17.0173 25.8416 15.9071 26.7933 14.7893 27.7525C13.6715 28.7116 12.3574 29.837 11.1489 30.8943C10.3257 31.6118 9.51757 32.352 8.7321 33.0619C7.3122 34.3534 5.83944 35.6902 4.29115 36.9289C3.08085 37.9483 2.08922 39.202 1.37585 40.6146C1.11687 42.7064 1.68307 44.8168 2.95435 46.498C3.32644 46.7977 3.75554 47.0187 4.21562 47.1476C4.4063 47.4749 4.69032 47.7379 5.03132 47.9029L5.31076 48.0312C5.50713 48.1294 5.69594 48.22 5.8923 48.3031C6.4849 48.563 7.12587 48.6943 7.77292 48.6883C8.23345 48.6937 8.69123 48.617 9.12482 48.4617C9.45615 48.7478 9.85755 48.9407 10.2879 49.0206C10.7106 49.081 11.1375 49.1063 11.5643 49.0961H14.1775L11.7985 51.1656L10.152 52.5628L7.88621 54.534L1.98005 59.6774C1.34984 60.1527 0.841712 60.7712 0.497647 61.4816C0.153582 62.1921 -0.0165518 62.9742 0.00126871 63.7634C0.0421784 64.3197 0.286901 64.8414 0.68856 65.2286C0.683841 65.3166 0.683841 65.4048 0.68856 65.4929C0.690892 65.9199 0.793209 66.3404 0.987318 66.7208C1.18143 67.1011 1.46192 67.4307 1.80633 67.6832C2.32449 68.1489 2.99062 68.4164 3.68695 68.4384C3.85123 68.7481 4.08052 69.0186 4.35912 69.2314C5.02665 69.6815 5.82053 69.9064 6.62491 69.8734C7.31766 69.8866 8.00201 69.7201 8.61125 69.3901C8.81522 69.5512 9.05263 69.6647 9.3061 69.7223L9.57043 69.7979C9.93198 69.9144 10.3085 69.9779 10.6882 69.9867H10.726C12.5347 70.0756 14.3375 69.7176 15.9751 68.9444C16.9993 68.3956 17.9658 67.7453 18.8602 67.0034C20.552 65.6288 22.1455 64.2316 23.6863 62.8872C24.5246 62.132 25.3554 61.3767 26.156 60.6819C26.7678 60.1381 27.372 59.5868 27.9913 59.043C29.6831 57.5324 31.2616 56.1578 32.8099 54.8135C35.2569 52.6937 37.7115 50.5739 40.1737 48.4542C41.6464 47.1778 43.0814 45.7428 43.5723 43.8622C43.7469 43.2728 43.7652 42.6481 43.6252 42.0496C43.4945 41.6528 43.2566 41.3 42.9379 41.0299Z" fill="white"/>
<path d="M9.43002 62.9832C9.80765 62.666 10.1853 62.3639 10.5705 62.0467C11.2124 61.4576 11.8091 60.8609 12.4586 60.2794C13.1082 59.6978 13.7501 59.1994 14.3619 58.6405C14.9736 58.0816 15.4646 57.5378 16.0688 57.0091C16.9147 56.2538 17.8134 55.4986 18.6971 54.7433L20.2076 53.4972C20.8722 52.9458 21.552 52.402 22.1939 51.8356C22.8359 51.2691 23.5383 50.612 24.2256 50.0078C24.9129 49.4036 25.502 49.0335 26.008 48.4973C26.1428 48.3512 26.3011 48.2287 26.4763 48.1348C26.3555 48.1348 23.6818 48.1952 23.0247 48.2783C23.0279 48.3668 23.0135 48.4551 22.9824 48.538C22.9512 48.621 22.9041 48.697 22.8435 48.7616C22.5338 49.0789 22.0882 49.3507 21.7483 49.6528L19.7167 51.3597C19.256 51.7449 18.7575 52.115 18.327 52.5153C17.2999 53.4442 16.3256 54.4035 15.306 55.3324C14.2864 56.2614 13.1535 57.1828 12.0961 58.1194C11.4768 58.6707 10.9405 59.2522 10.2986 59.796C9.15057 60.7627 7.92704 61.7068 6.77904 62.6736C6.30323 63.0663 5.94072 63.5119 5.49511 63.9198C4.94388 64.4602 4.35861 64.9647 3.7429 65.4303C2.91211 66.0118 2.82902 66.1251 3.52386 66.7444C3.68955 66.9219 3.91593 67.0304 4.158 67.0486C4.40008 67.0668 4.64014 66.9933 4.83048 66.8426C5.25342 66.533 5.58575 66.1931 5.97093 65.8683L9.43002 62.9832Z" fill="url(#paint0_linear_309_3122)"/>
<path d="M3.44012 64.3727C4.46728 63.4513 5.38114 62.4846 6.46117 61.5934C8.23978 60.1716 9.94388 58.659 11.5667 57.0618C12.5033 56.1328 13.6815 55.2869 14.7237 54.3882C15.766 53.4894 16.8687 52.5075 17.9411 51.571L19.5272 50.1738C20.2371 49.562 20.932 48.9503 21.6646 48.3461C21.5891 48.3461 19.6254 48.2705 18.7191 48.3461C18.7191 48.4745 18.6662 48.6255 18.4623 48.8143C18.0091 49.2297 17.5333 49.63 17.0651 50.0378L11.8462 54.5694L3.66669 61.684C3.26496 61.9735 2.93679 62.3532 2.70855 62.7927C2.48031 63.2321 2.35836 63.719 2.35254 64.2141C2.35254 64.3576 2.60932 64.5011 2.74527 64.6446C2.98914 64.5891 3.22336 64.4975 3.44012 64.3727Z" fill="url(#paint1_linear_309_3122)"/>
<path d="M15.5848 61.677C17.1407 60.3628 18.7192 59.0563 20.2599 57.7421C20.8943 57.1983 21.4305 56.6243 22.0574 56.0805C22.6843 55.5367 23.4093 55.0609 24.0135 54.5247C25.0936 53.573 26.0981 52.5912 27.1705 51.632C28.243 50.6728 29.4363 49.6155 30.6296 48.611C30.7679 48.4915 30.9171 48.3853 31.0752 48.2938C30.8864 48.2938 27.9938 48.2333 27.888 48.2409C27.2159 48.8224 26.5437 49.3964 25.8866 49.978C24.799 50.9447 23.7341 51.919 22.6541 52.8857C21.8988 53.5428 21.1436 54.1923 20.3883 54.8419C19.4744 55.6425 18.5908 56.443 17.6542 57.236C16.7177 58.0291 15.5168 58.9203 14.5274 59.7888C13.5381 60.6574 12.4505 61.7677 11.3856 62.7495C10.6303 63.5048 9.7693 64.1996 8.93851 64.9095C7.89625 65.8007 6.80866 66.6768 5.81172 67.5831C5.73753 67.6786 5.70387 67.7995 5.718 67.9196C5.73213 68.0397 5.79292 68.1495 5.88725 68.2251C6.21584 68.3837 6.57598 68.466 6.94083 68.466C7.30568 68.466 7.66584 68.3837 7.99444 68.2251C8.44306 67.9012 8.8718 67.5507 9.27837 67.1753C10.5809 66.1579 11.8147 65.0553 12.9716 63.8748C13.7975 63.0901 14.6702 62.3562 15.5848 61.677Z" fill="url(#paint2_linear_309_3122)"/>
<path d="M41.2865 42.9092C40.5917 43.3094 40.063 43.3019 39.6627 42.7505C39.6627 42.7505 39.5117 42.7052 39.421 42.675L37.8652 43.3321L37.2987 42.5164L35.5994 43.3925L35.0481 42.524L33.3865 43.4303C33.3234 43.2212 33.2399 43.0188 33.1372 42.8261C33.0734 42.7474 33.0411 42.6478 33.0466 42.5466H32.9937L32.888 42.4938H32.8276L32.7067 42.4409C32.6539 42.6071 32.3593 42.7656 32.1252 42.894C31.835 43.0399 31.5375 43.171 31.234 43.2868L30.5844 42.675C30.2446 42.8261 29.8821 42.9771 29.5573 43.1508C29.1041 43.4076 28.8851 43.2717 28.7265 43.0073C28.6767 42.9226 28.6504 42.8262 28.6504 42.7279C28.6504 42.6296 28.6767 42.5332 28.7265 42.4485H28.6585C28.4801 42.5116 28.2952 42.5546 28.1072 42.5768C27.7952 42.8018 27.455 42.9846 27.0952 43.1206C26.9028 43.1764 26.6985 43.1764 26.5061 43.1206C25.8565 42.5844 25.275 42.894 24.6707 43.1206C24.4998 43.161 24.3252 43.1838 24.1496 43.1886L23.5001 42.607C23.2055 42.7581 22.979 42.894 22.7448 42.9998C22.5107 43.1055 22.2086 43.1962 21.9291 43.3019C21.4684 42.7506 22.6844 41.3609 22.7599 41.1267C22.7599 41.0814 26.3399 37.9244 26.7553 37.577C27.1707 37.2296 27.4501 37.0105 27.7824 36.716L31.7778 33.2191L35.7882 29.7147L39.1416 26.7994C39.8968 26.1725 40.5539 25.5381 41.3016 24.9188C42.3363 24.0805 42.8952 23.1515 42.7668 22.1092C42.7192 21.959 42.6167 21.8323 42.4798 21.7542C42.3263 21.7503 42.174 21.7813 42.0342 21.8449C39.3757 23.6424 35.9544 25.0321 33.681 27.0486C32.8427 27.8039 11.0685 46.98 10.7739 47.3652C10.7362 47.418 10.9476 47.5993 11.0911 47.622C11.4164 47.6663 11.7448 47.6839 12.073 47.6749H18.4096C18.742 47.6749 32.7596 47.7504 33.1222 47.7353C33.1222 47.909 28.3791 52.4255 27.6314 53.0599C27.3293 53.3167 23.3415 56.8362 22.6467 57.4706C22.0802 57.9615 21.5817 58.4826 21.0153 58.9811C19.9881 59.8723 18.9232 60.756 17.8885 61.6548C17.1332 62.2816 16.4837 62.9311 15.7587 63.558C15.5623 63.7317 11.3026 67.4401 10.1924 68.3766C10.499 68.4791 10.8154 68.55 11.1365 68.5881C12.6404 68.6632 14.1409 68.3838 15.517 67.7724C16.4275 67.2784 17.2875 66.6966 18.0849 66.0353C19.7313 64.6985 21.2947 63.3314 22.8657 61.9644C24.3158 60.6956 25.713 59.4041 27.1556 58.1277C28.7567 56.7128 30.368 55.3005 31.9893 53.8907C34.4363 51.7659 36.8934 49.6436 39.3606 47.5238C40.6445 46.4136 41.8001 45.258 42.1475 43.9137C42.236 43.6432 42.2542 43.3547 42.2004 43.0753C42.0418 42.8412 41.6944 42.6599 41.2865 42.9092Z" fill="url(#paint3_linear_309_3122)"/>
<path d="M26.3022 39.0181C26.189 39.1918 26.1587 39.3807 26.0379 39.5619C25.9763 39.6477 25.9081 39.7285 25.834 39.8036C26.011 39.8955 26.1802 40.0016 26.34 40.1208C26.5062 40.1208 26.6572 40.1208 26.8158 40.0679C26.9744 40.0151 27.201 40 27.3898 39.9546C27.4037 39.9291 27.4247 39.9082 27.4503 39.8943C27.5772 39.7972 27.7349 39.7491 27.8944 39.7588C28.0539 39.7685 28.2046 39.8354 28.3188 39.9471C28.6819 39.9453 29.0407 40.0253 29.3686 40.1813C29.3686 40.0453 29.5046 39.9169 29.7387 39.7961C30.0606 39.7405 30.3919 39.7909 30.6828 39.9396C30.8112 40.0453 30.8641 40.1284 30.8565 40.2039C31.1385 40.2051 31.4196 40.1747 31.6948 40.1133C31.7889 39.9994 31.9198 39.9219 32.0649 39.8943C32.2918 39.8495 32.5253 39.8495 32.7522 39.8943C33.2576 39.8826 33.763 39.9155 34.2627 39.9924C34.4576 39.8776 34.6655 39.7863 34.882 39.7205C34.9726 39.7205 35.2294 39.8716 35.5391 40.0679H35.5769H35.6977H35.7808H36.0602H36.385L36.4907 40C36.6946 39.8867 36.9666 39.8111 37.4197 39.6299C37.465 39.8187 37.533 39.9849 37.5557 40.1359H37.6085C37.9224 40.1116 38.2319 40.0482 38.5299 39.9471H38.6433C38.7716 39.7432 38.9227 39.5317 38.8094 39.3882C38.542 39.1813 38.2304 39.039 37.899 38.9722C37.5676 38.9054 37.2253 38.916 36.8986 39.003C36.66 39.133 36.3873 39.1868 36.1172 39.1571C35.8472 39.1274 35.5927 39.0156 35.3881 38.8369C35.2066 38.6814 34.9856 38.5793 34.7496 38.542C34.5136 38.5046 34.2718 38.5336 34.0512 38.6254L34.3911 39.0257L34.1947 39.1692C33.9128 39.0787 33.6397 38.9624 33.379 38.8217C32.9712 38.5272 32.0649 38.3913 31.8685 38.6405L32.1178 39.0484L31.9441 39.1843C31.6344 39.0786 31.3323 38.9652 31.0226 38.8671L29.8671 38.4668L29.4139 39.1087C29.206 38.954 28.9804 38.8247 28.7417 38.7236C28.3566 38.6103 27.911 38.5574 27.4427 38.4668C27.4284 38.5601 27.403 38.6514 27.3672 38.7387L27.2463 38.9199C27.2492 38.9425 27.2492 38.9654 27.2463 38.9879L27.201 39.0332L27.1179 39.1465L26.9442 39.0484C26.627 38.92 26.3929 38.8822 26.3022 39.0181Z" fill="url(#paint4_linear_309_3122)"/>
<path d="M24.0735 42.2358L24.64 42.0017C25.6143 41.5636 25.6142 41.5636 26.0145 42.266C26.06 42.3256 26.1105 42.3813 26.1656 42.4322C26.4709 42.2556 26.7861 42.0967 27.1097 41.9564C27.3803 41.8874 27.6554 41.8369 27.9329 41.8053C28.0149 41.9715 28.0855 42.1431 28.1444 42.3189H28.2048H28.303L28.4616 42.266C28.6018 42.2129 28.7457 42.17 28.8921 42.1376C29.1325 41.924 29.4283 41.7826 29.7455 41.7298C29.9259 41.7155 30.1055 41.7664 30.2516 41.8733C30.6292 42.3567 31.0899 42.2509 31.6564 41.9941C31.8864 41.9122 32.1297 41.8739 32.3738 41.8809C32.4456 41.9569 32.5089 42.0404 32.5626 42.1301C32.759 42.2056 32.9554 42.2887 33.1366 42.3793C33.4313 42.2065 33.7493 42.0768 34.0807 41.9941C34.4735 41.9759 34.8671 42.0089 35.2514 42.0923C35.5301 42.123 35.8122 42.1 36.0822 42.0244C36.7015 41.7298 37.1471 41.7449 37.5171 42.1754C37.6031 42.2519 37.6998 42.3155 37.8042 42.3642C39.2467 41.6996 39.2467 41.6996 40.0699 42.3642C40.4761 42.1381 40.8672 41.8858 41.2406 41.6089C41.7391 41.1935 41.2406 40.8537 40.8856 40.4987C40.5939 40.3779 40.2717 40.3514 39.9642 40.4232C39.141 40.8914 38.7483 40.4836 38.2045 40.2193L38.2649 40.174C38.0176 40.2369 37.7645 40.2748 37.5096 40.2872H37.4643C37.4679 40.3097 37.4679 40.3327 37.4643 40.3552C37.4266 40.4534 36.9432 40.544 36.6637 40.544C36.4471 40.527 36.2435 40.4333 36.0897 40.2797H35.7347H35.4251C35.1559 40.4313 34.8617 40.5335 34.5565 40.5818C34.3224 40.5818 34.0732 40.325 33.8013 40.1815H33.839C33.5634 40.1461 33.2861 40.1259 33.0083 40.1211C33.1669 40.5063 32.3587 40.476 32.034 40.7177C31.8751 40.6219 31.7386 40.4931 31.6337 40.3401C31.2769 40.3996 30.9152 40.4249 30.5537 40.4157C30.3 40.4784 30.0596 40.5858 29.8437 40.7329C29.7249 40.6717 29.6112 40.601 29.5038 40.5214C29.2343 40.391 28.9538 40.2849 28.6655 40.2042V40.325L27.3589 40.6271C27.3589 40.4912 27.2909 40.325 27.2683 40.189L26.7849 40.2797C26.5583 40.2797 26.3166 40.3326 26.0825 40.3401L25.9012 40.4232L25.3424 40.68L24.9345 40.4534C24.6291 40.461 24.3274 40.5223 24.0433 40.6347C24.0395 40.6673 24.0395 40.7002 24.0433 40.7329C24.0547 40.8235 24.039 40.9155 23.998 40.9972C23.8469 41.2766 23.3485 41.2842 22.918 41.2842C22.9279 41.426 22.9776 41.5621 23.0614 41.6769L23.1294 41.8053C23.4596 41.9122 23.7763 42.0566 24.0735 42.2358Z" fill="url(#paint5_linear_309_3122)"/>
<path d="M6 46.3858C6.75526 45.6306 7.39724 44.9432 8.06187 44.2786C8.31866 44.0294 8.63588 43.7952 8.92288 43.5234C10.592 42.0732 12.2838 40.6232 13.9378 39.1655C14.9499 38.2668 15.8864 37.3378 16.9135 36.4465C17.9407 35.5553 19.1793 34.6113 20.2443 33.6899C20.8485 33.1763 21.3771 32.64 21.9814 32.1189C23.0463 31.205 24.1565 30.2987 25.2214 29.3773C25.8634 28.8184 26.4299 28.2293 27.0492 27.6628C27.6685 27.0964 28.1821 26.598 28.8089 26.0995C31.8904 23.6147 36.0292 21.7114 39.5865 19.4834C39.866 19.3021 40.2059 19.1586 40.508 19C41.8976 19.4758 42.0713 20.0498 40.9913 20.6842C38.1968 22.3231 35.3721 23.9545 32.5928 25.6085C32.2093 25.9008 31.8575 26.2324 31.543 26.5979C30.7877 27.3079 29.9494 28.0103 29.1412 28.7127C28.8316 28.9846 28.4993 29.2565 28.1745 29.5208C26.9661 30.5177 25.7426 31.4996 24.5719 32.5419C23.9526 33.063 23.439 33.637 22.8424 34.1732C22.2457 34.7095 21.4753 35.3061 20.8334 35.8877C19.8817 36.7487 18.983 37.6248 18.0313 38.4782C17.3667 39.0749 16.6341 39.6413 15.9544 40.2304C15.2746 40.8195 14.6251 41.4615 13.9378 42.0657C13.4016 42.534 12.7974 42.972 12.2687 43.4403C11.5512 44.0672 10.8488 44.7016 10.1842 45.3511C9.73855 45.7816 9.38358 46.2348 8.97574 46.6728C8.65623 46.8738 8.29036 46.9891 7.91335 47.0076C7.53634 47.0262 7.16092 46.9473 6.82326 46.7786L6 46.3858Z" fill="url(#paint6_linear_309_3122)"/>
<path d="M37.8722 17.8184C38.4283 18.0112 38.973 18.2356 39.5036 18.4906C39.6017 18.5434 39.3828 18.8909 39.1637 19.0192C37.3058 20.1446 35.3874 21.285 33.5219 22.3575C32.1398 23.1656 30.667 23.9209 29.3604 24.7668C28.6721 25.2813 28.0256 25.8495 27.4269 26.4661C26.8454 26.9722 26.2487 27.4782 25.6747 27.9767L23.5373 29.8648C23.0011 30.3331 22.4498 30.7863 21.9135 31.2545L19.8743 33.0218C19.119 33.6713 18.3185 34.3133 17.5632 34.9628C17.0647 35.3933 16.6342 35.854 16.1433 36.2845C15.5013 36.8585 14.8216 37.4174 14.1645 37.9839C13.5074 38.5503 13.1072 38.9431 12.5558 39.4113C11.2719 40.4989 9.97281 41.5865 8.69642 42.6741C7.85808 43.3916 7.03484 44.1242 6.24182 44.8568C6.07566 45.0154 6.12852 45.242 5.97747 45.4081C5.91165 45.5254 5.81884 45.6252 5.70672 45.6994C5.59459 45.7736 5.46641 45.82 5.33277 45.8348C5.19913 45.8496 5.06389 45.8323 4.93827 45.7843C4.81265 45.7364 4.70027 45.6592 4.61045 45.5592C3.85518 44.9399 4.09686 44.1242 4.95786 43.5124C5.66781 43.0064 6.27958 42.4475 6.90645 41.9037C7.97137 40.9747 9.00608 40.0382 10.0634 39.1168C10.6752 38.573 11.3021 38.0443 11.9138 37.5081C13.0996 36.4734 14.3005 35.4387 15.4711 34.4039C16.5134 33.4674 17.533 32.5309 18.5677 31.5944C18.9907 31.2092 19.4287 30.8391 19.8743 30.4615C20.9543 29.5476 22.0721 28.6413 23.1295 27.7123C24.1869 26.7834 25.0327 25.9525 26.0448 25.0991C27.1985 24.0246 28.4645 23.0776 29.8211 22.2744C32.238 20.9527 34.534 19.5555 36.8979 18.2036C37.215 18.0565 37.5403 17.9279 37.8722 17.8184Z" fill="url(#paint7_linear_309_3122)"/>
<path d="M35.6164 18.041C34.8158 18.5621 34.2116 18.9851 33.547 19.3778C31.5077 20.5711 29.4232 21.7342 27.4142 22.9426C26.7998 23.3587 26.2258 23.8316 25.6998 24.355C25.1258 24.861 24.6122 25.3897 24.0458 25.8655C23.1999 26.6208 22.3087 27.376 21.4628 28.1313C20.1335 29.3171 18.842 30.5255 17.4977 31.7037C15.8738 33.1236 14.2123 34.5284 12.5507 35.9332C11.4555 36.8621 10.3378 37.7835 9.24262 38.705C8.38162 39.4602 7.54328 40.2155 6.68983 40.9104C5.83638 41.6052 4.98296 42.368 4.18238 43.1157C3.91368 43.4271 3.68296 43.7694 3.49509 44.1353C3.27003 43.9381 3.12613 43.6645 3.09125 43.3673C3.05637 43.0701 3.13299 42.7705 3.30627 42.5266C3.89776 41.3268 4.73087 40.2623 5.75331 39.3998C8.20036 37.4286 10.3529 35.3365 12.6715 33.3124C14.9902 31.2883 17.3315 29.3095 19.6275 27.2703C21.9235 25.2311 24.159 23.2296 26.4928 21.2282C27.4135 20.3642 28.4267 19.6044 29.5139 18.9624C31.0879 18.1953 32.8238 17.8197 34.5741 17.8673C34.8158 17.9202 35.0424 17.9806 35.6164 18.041Z" fill="url(#paint8_linear_309_3122)"/>
<path d="M63.4064 70V63.619H61.9844V67.498L59.5904 63.619H57.8624V70H59.2754V65.806L61.9034 70H63.4064ZM73.3294 70V68.65H70.7014V67.426H73.0774V66.175H70.7014V64.96H73.3204V63.619H69.2794V70H73.3294ZM84.0177 64.978V63.619H78.6627V64.978H80.6247V70H82.0467V64.978H84.0177ZM95.6308 67.714L94.3078 63.619H92.8498L91.5268 67.705L90.4738 63.619H88.9618L90.6988 70H92.1928L93.5608 65.77L94.9198 70H96.3868L98.1238 63.619H96.6658L95.6308 67.714ZM104.286 66.805C104.286 65.473 105.24 64.87 106.131 64.87C107.013 64.87 107.967 65.473 107.967 66.805C107.967 68.137 107.013 68.731 106.131 68.731C105.24 68.731 104.286 68.137 104.286 66.805ZM102.81 66.814C102.81 68.83 104.331 70.135 106.131 70.135C107.922 70.135 109.443 68.83 109.443 66.814C109.443 64.789 107.922 63.484 106.131 63.484C104.331 63.484 102.81 64.789 102.81 66.814ZM118.025 70H119.591L118.295 67.417C119.078 67.138 119.555 66.481 119.555 65.617C119.555 64.483 118.745 63.619 117.485 63.619H114.956V70H116.378V67.624H116.882L118.025 70ZM116.378 66.4V64.852H117.215C117.8 64.852 118.115 65.149 118.115 65.626C118.115 66.076 117.8 66.4 117.215 66.4H116.378ZM128.969 70H130.742L128.249 66.382L130.733 63.619H128.861L126.53 66.301V63.619H125.108V70H126.53V68.29L127.25 67.489L128.969 70Z" fill="url(#paint9_linear_309_3122)"/>
<path d="M63.4064 70V63.619H61.9844V67.498L59.5904 63.619H57.8624V70H59.2754V65.806L61.9034 70H63.4064ZM73.3294 70V68.65H70.7014V67.426H73.0774V66.175H70.7014V64.96H73.3204V63.619H69.2794V70H73.3294ZM84.0177 64.978V63.619H78.6627V64.978H80.6247V70H82.0467V64.978H84.0177ZM95.6308 67.714L94.3078 63.619H92.8498L91.5268 67.705L90.4738 63.619H88.9618L90.6988 70H92.1928L93.5608 65.77L94.9198 70H96.3868L98.1238 63.619H96.6658L95.6308 67.714ZM104.286 66.805C104.286 65.473 105.24 64.87 106.131 64.87C107.013 64.87 107.967 65.473 107.967 66.805C107.967 68.137 107.013 68.731 106.131 68.731C105.24 68.731 104.286 68.137 104.286 66.805ZM102.81 66.814C102.81 68.83 104.331 70.135 106.131 70.135C107.922 70.135 109.443 68.83 109.443 66.814C109.443 64.789 107.922 63.484 106.131 63.484C104.331 63.484 102.81 64.789 102.81 66.814ZM118.025 70H119.591L118.295 67.417C119.078 67.138 119.555 66.481 119.555 65.617C119.555 64.483 118.745 63.619 117.485 63.619H114.956V70H116.378V67.624H116.882L118.025 70ZM116.378 66.4V64.852H117.215C117.8 64.852 118.115 65.149 118.115 65.626C118.115 66.076 117.8 66.4 117.215 66.4H116.378ZM128.969 70H130.742L128.249 66.382L130.733 63.619H128.861L126.53 66.301V63.619H125.108V70H126.53V68.29L127.25 67.489L128.969 70Z" fill="#62688F"/>
<path d="M59.1072 38.65L68.6072 44.95V47.25H56.1572V56H75.2072C77.7572 56 79.5572 54.2 79.5572 51.65V43.7C79.5572 40.9 79.0072 39.35 76.6072 37.75L67.1072 31.4V29.8H77.8572L79.5572 25.3V21H60.5572C57.9572 21 56.1572 22.8 56.1572 25.35V32.7C56.1572 35.5 56.7072 37 59.1072 38.65ZM105.948 56V47.25H93.4479V42.45H104.198V33.7H93.4479V29.8H104.198L105.948 25.35V21H82.5479V56H105.948ZM119.914 44.2H130.664V35.45H119.914V29.8H130.664L132.364 25.35V21H108.964V56H119.914V44.2Z" fill="url(#paint10_linear_309_3122)"/>
<defs>
<linearGradient id="paint0_linear_309_3122" x1="3.01784" y1="57.6209" x2="26.4536" y2="57.6209" gradientUnits="userSpaceOnUse">
<stop stop-color="#D4FFFD"/>
<stop offset="0.11" stop-color="#EDE9FF"/>
<stop offset="0.3" stop-color="#10A4DA"/>
</linearGradient>
<linearGradient id="paint1_linear_309_3122" x1="3.57891" y1="63.6152" x2="17.6667" y2="46.9929" gradientUnits="userSpaceOnUse">
<stop stop-color="#00ADE8"/>
<stop offset="1" stop-color="#01E8A2"/>
</linearGradient>
<linearGradient id="paint2_linear_309_3122" x1="7.3253" y1="67.1912" x2="24.5762" y2="45.6077" gradientUnits="userSpaceOnUse">
<stop stop-color="#00ADE8"/>
<stop offset="1" stop-color="#01E8A2"/>
</linearGradient>
<linearGradient id="paint3_linear_309_3122" x1="12.2621" y1="65.6473" x2="50.6408" y2="39.0035" gradientUnits="userSpaceOnUse">
<stop stop-color="#1B295E"/>
<stop offset="1" stop-color="#00ADE8"/>
</linearGradient>
<linearGradient id="paint4_linear_309_3122" x1="25.8364" y1="39.3358" x2="38.8487" y2="39.3358" gradientUnits="userSpaceOnUse">
<stop stop-color="#D4FFFD"/>
<stop offset="0.11" stop-color="#EDE9FF"/>
<stop offset="0.67" stop-color="#00ADE8"/>
</linearGradient>
<linearGradient id="paint5_linear_309_3122" x1="23.0086" y1="41.2766" x2="41.4823" y2="41.2766" gradientUnits="userSpaceOnUse">
<stop stop-color="#D4FFFD"/>
<stop offset="0.11" stop-color="#EDE9FF"/>
<stop offset="0.97" stop-color="#10A4DA"/>
</linearGradient>
<linearGradient id="paint6_linear_309_3122" x1="8.26655" y1="45.2448" x2="32.0692" y2="14.9798" gradientUnits="userSpaceOnUse">
<stop stop-color="#00ADE8"/>
<stop offset="1" stop-color="#01E8A2"/>
</linearGradient>
<linearGradient id="paint7_linear_309_3122" x1="4.16484" y1="31.836" x2="39.5262" y2="31.836" gradientUnits="userSpaceOnUse">
<stop stop-color="#D4FFFD"/>
<stop offset="0.11" stop-color="#EDE9FF"/>
<stop offset="0.67" stop-color="#00ADE8"/>
</linearGradient>
<linearGradient id="paint8_linear_309_3122" x1="5.14897" y1="42.4794" x2="27.6168" y2="14.717" gradientUnits="userSpaceOnUse">
<stop stop-color="#00ADE8"/>
<stop offset="1" stop-color="#01E8A2"/>
</linearGradient>
<linearGradient id="paint9_linear_309_3122" x1="160.977" y1="90.4669" x2="61.4439" y2="52.6938" gradientUnits="userSpaceOnUse">
<stop stop-color="white"/>
<stop offset="0.619792" stop-color="#8755FF"/>
<stop offset="1" stop-color="#40B6FF"/>
</linearGradient>
<linearGradient id="paint10_linear_309_3122" x1="59.5" y1="61.5" x2="141.5" y2="25.5" gradientUnits="userSpaceOnUse">
<stop stop-color="#00ADE8"/>
<stop offset="1" stop-color="#01E8A2"/>
</linearGradient>
</defs>
</svg>
