<svg width="20" height="20" viewBox="0 0 20 20" fill="none" xmlns="http://www.w3.org/2000/svg">
<path d="M5.78195 5.66223H15.4626L13.0028 8.12211C12.8452 8.28579 12.7582 8.50475 12.7604 8.73191C12.7626 8.95907 12.8538 9.17631 13.0145 9.33691C13.1752 9.49751 13.3925 9.58865 13.6196 9.59074C13.8468 9.59284 14.0657 9.50571 14.2293 9.3481L18.1714 5.40881C18.2114 5.3686 18.2474 5.32466 18.279 5.2776C18.2869 5.26521 18.2931 5.25113 18.2998 5.23874C18.3222 5.20264 18.3419 5.16501 18.359 5.12611C18.3663 5.10752 18.3702 5.08838 18.3764 5.06979C18.3895 5.03545 18.4002 5.00027 18.4085 4.96448C18.4318 4.85116 18.4318 4.73428 18.4085 4.62095C18.4001 4.58519 18.3894 4.55001 18.3764 4.51564C18.3702 4.49706 18.3668 4.47735 18.359 4.45933C18.3422 4.42033 18.3224 4.38268 18.2998 4.3467C18.2931 4.33431 18.2869 4.32023 18.279 4.3084C18.2475 4.26123 18.2115 4.21728 18.1714 4.17719L14.2293 0.2424C14.0656 0.0848644 13.8467 -0.00215787 13.6195 4.06666e-05C13.3924 0.0022392 13.1751 0.0934831 13.0145 0.254157C12.8539 0.41483 12.7628 0.632104 12.7607 0.859269C12.7586 1.08643 12.8457 1.30535 13.0033 1.46896L15.4626 3.92827H5.78195C4.24922 3.93006 2.77977 4.53964 1.69587 5.62334C0.61196 6.70703 0.00208653 8.17637 0 9.70909C0 9.9391 0.0913723 10.1597 0.254016 10.3223C0.416659 10.485 0.637252 10.5764 0.867264 10.5764C1.09728 10.5764 1.31787 10.485 1.48051 10.3223C1.64316 10.1597 1.73453 9.9391 1.73453 9.70909C1.73631 8.63614 2.16329 7.60765 2.92193 6.84891C3.68056 6.09017 4.709 5.66304 5.78195 5.66111V5.66223ZM19.1327 9.29122C18.9027 9.29122 18.6821 9.3826 18.5195 9.54524C18.3568 9.70788 18.2655 9.92848 18.2655 10.1585C18.2644 11.2316 17.8377 12.2605 17.0789 13.0193C16.32 13.7781 15.2912 14.2049 14.2181 14.2059H4.53737L6.99724 11.746C7.15989 11.5834 7.25127 11.3628 7.25127 11.1328C7.25127 10.9027 7.15989 10.6821 6.99724 10.5195C6.83459 10.3568 6.61399 10.2654 6.38396 10.2654C6.15394 10.2654 5.93333 10.3568 5.77068 10.5195L1.82857 14.4616C1.78861 14.5017 1.75242 14.5455 1.72045 14.5922C1.71313 14.6041 1.7075 14.6176 1.70074 14.6294C1.67826 14.6655 1.65832 14.7032 1.64104 14.742C1.63429 14.7601 1.63034 14.7792 1.62415 14.7983C1.61098 14.8331 1.60007 14.8686 1.59149 14.9048C1.56821 15.0181 1.56821 15.135 1.59149 15.2483C1.59981 15.2845 1.61072 15.3201 1.62415 15.3548C1.63034 15.3733 1.63372 15.3925 1.64104 15.4111C1.65854 15.4498 1.67848 15.4875 1.70074 15.5237C1.70806 15.5355 1.71313 15.549 1.72045 15.5609C1.75242 15.6076 1.78861 15.6514 1.82857 15.6915L5.76787 19.6336C5.84837 19.7141 5.94393 19.778 6.04911 19.8215C6.15429 19.8651 6.26702 19.8875 6.38086 19.8875C6.49471 19.8875 6.60744 19.8651 6.71262 19.8215C6.81779 19.778 6.91336 19.7141 6.99386 19.6336C7.07436 19.5531 7.13822 19.4576 7.18178 19.3524C7.22535 19.2472 7.24778 19.1345 7.24778 19.0206C7.24778 18.9068 7.22535 18.7941 7.18178 18.6889C7.13822 18.5837 7.07436 18.4881 6.99386 18.4076L4.53737 15.941H14.2181C15.7509 15.9392 17.2204 15.3295 18.3043 14.2457C19.3883 13.1619 19.9981 11.6924 20 10.1596C20.0001 10.0457 19.9777 9.9329 19.9341 9.82764C19.8906 9.72239 19.8267 9.62675 19.7462 9.5462C19.6656 9.46566 19.57 9.40178 19.4647 9.35822C19.3595 9.31466 19.2466 9.29228 19.1327 9.29235V9.29122Z" fill="#949AB2"/>
</svg>
